<mxfile host="app.diagrams.net" modified="2024-05-14T12:34:37.391Z" agent="Mozilla/5.0 (Macintosh; Intel Mac OS X 10_15_7) AppleWebKit/537.36 (KHTML, like Gecko) Chrome/124.0.0.0 Safari/537.36" etag="MrJWTGEYB_2r8Gw3GRgY" version="24.4.0" type="github">
  <diagram id="R2lEEEUBdFMjLlhIrx00" name="Page-1">
    <mxGraphModel dx="951" dy="545" grid="1" gridSize="10" guides="1" tooltips="1" connect="1" arrows="1" fold="1" page="1" pageScale="1" pageWidth="850" pageHeight="1100" math="0" shadow="0" extFonts="Permanent Marker^https://fonts.googleapis.com/css?family=Permanent+Marker">
      <root>
        <mxCell id="0" />
        <mxCell id="1" parent="0" />
        <mxCell id="588fFYtTlddXMiWbLttS-1" value="" style="rounded=0;whiteSpace=wrap;html=1;direction=south;" vertex="1" parent="1">
          <mxGeometry x="50" y="120" width="150" height="300" as="geometry" />
        </mxCell>
        <mxCell id="588fFYtTlddXMiWbLttS-2" value="" style="rounded=0;whiteSpace=wrap;html=1;fillColor=#00000D;strokeColor=#56517e;" vertex="1" parent="1">
          <mxGeometry x="50" y="20" width="150" height="70" as="geometry" />
        </mxCell>
        <mxCell id="588fFYtTlddXMiWbLttS-3" value="" style="shape=image;verticalLabelPosition=bottom;labelBackgroundColor=default;verticalAlign=top;aspect=fixed;imageAspect=0;image=data:image/png,iVBORw0KGgoAAAANSUhEUgAAAVsAAACRCAMAAABaFeu5AAAA81BMVEX///8lOFgmhP8jNlcjgPsTLFDd4OUCJUvGytLw8vQsPl0MKE2wtsGXnqwfe/YdePMPfv+y0P/4+fqawf8Zc+4AG0YAUswVbegNY90QZ+EVbukKX9kAe/8GWtQbMVPU2N7G3P/v9f/d6f86jf+NlaSAsf8ih//L4f8ARMkAScqUrOSDpeM1RmNHVW/y8/XC1fOnrbhbnv+gxf9/iJhteIvAxMxcaH4AUtNEk/+szf8AXd6YuPRUYXiFjp7n8f/T5v9vqf8AFENLl/+Muf9CUGsAb/MAPsgXYdC4y+6fuekAADp4rP81a9K9ze9ho/+Iru0AF0QOSzmLAAAMT0lEQVR4nO2dfX+aShqGxxBERFJDatO0LkZjtTlV1xQ1SY8x2cbuObvdzZ7v/2kWRGFeHmBARjGd+6/+qiPMlWHennseEJKSkpKSkpKSkpKSkpKSkpKSOnRZp1l1ae373ouudq9Zz6qzfd98wWXdHR9lVVPCjddNdrZH9cW+777Y+lTfgu39vu++2Pq6DVvZKcTqsSnZClN2tJJtkrbocCXbBG3RKYhmO9LLutgriFb2Ga5QtqPaZDmoDuZOS+BFROsyc6cgkm1lqNmKK1s1nJG4y4hW5uWDQLZT2y5tZMwPF+5j8dptWVFKoQxH1HXE6yzjcLYVW72FiR6yJmoJl1repnr71VO2LncrtrV/GIH+MsnPLK1Esu1uVb29qv09E9zt2BoYO4ptxSDZ2rOtqrdfte+ywBXGtkaxVYZb1W7PytRyd8d2edBBDuslPVxhbKd0n3DQ7dbV/XFausLYlmm2k61qVgAtnprpVhHC2KKqQrDVptvUqxjqvzTrKfCKYzsmGq49PNyFGabO852Ll5OvOLZohi0eFLWyxXWKpHbn69P3q97RcRArjyQtkK0+05QNWeUV9AihrMWiE6p/tXu2yBovVUNVVa00OeAFb6La+2CL0Kg17jrmtNhkrX68/h4p33+wJ7YHoXavSelHqG+Bbn1dX19/vv7s659//Ikk2ziRvqRjTycnJ2/evHnr6cOH8/Pzi4uL954+fvz4N0/vNvr8L8k2Vt+pkT4N3HcLyTZOzPYsB9wN3es/Jds4nTEbBTDcCwDu9W+SbZz6ENs13DcJcCXbeAFwuOFKtgn6ye4eruGe4HDPAbiHyLY8rY3Nbrcbt1YeVWrdyXy4XA5nznibBUofCORGwb1YsQ3gumwjveUC2Y5qmNiaW/jHxCctc26rquEtlxsPUdcum0PbXVHbvrvEdr9ddSp4aEOP/H32VuhZGD9cl22kq0kg27KqBVHgf7PbYLqNfRxC0Wsus8A0osJsrelcMUJnyXpHyFaXZhjJrzTCILSRUJFTyIHABddj+7QHttjuuAawxT5ubNha4yXBDGZbGzJgfbqKMRhvfqqiYpvzSTWBGi4X3NvfoDlcEdm25gYZrYDYlmcwWR+vMV8b+1KxhZ2gMXA3A5rHlp3DFZBtzaahAWxrajRZT7bhj3+p2EZZmGm4H2i4HttFxEShSGzNBtloQbYO+yVajbH3xXRsUYQBgdy5oeF+XLGN6nALxNZssJhottbMYL/EwvXuJSXbxVXEiMTCxRYRH1dsL2EzXnHYjikDGcTWmqvAl1hptdRsUSc93Pdrtm14FlYYtgSKKLYzPrTuhKGVmi3qRJm+oruF9z5bdA823KKw1Zf4CKVsRLLtsmhXrnRD01ariPC/7WF6tmhxwwOX3HP02cJLs4KwRU6ATbENuzpYDufz4XBZwp2lFWYYs43qcNId16bTmunMB0aIVzVbqdki9BwREI+G+23FFu5xi8HWqGxarWoPnFqrrPuTshF+yGdEOXVKqjIjdhH0ykQJ/kRqzU7PFvXvYF9SJNxvv/sFIftzMdgqQ//fqvoQfaTHIXsE2+iyp6v0rrb+KylL/Mv8dTq9a0I9AwB31elu2CJgJCwG29Lqn7bWjfGRtjSi2Woz+NyaPtOwn0zP1n2+fx6zti9oQ/ccZ9vpMXALwnb1C8vYbcIZMdhp0VuaJjCZS1ev9unzzVWdCKtHrX8DtqjPwC0OW3UW68ar4DsNih23rztmpxOpq2a1F53+ZaB+PQJuyBb16W6hMGzthBNoRLO14zdkTWaunLJirJoROzcYW2aCXBS2SjU+btAiDqtF7pivNaFbbqpqQWoeAXA/kGxRmwwOFYWtkRASesBo2fOkoxP6gGq4qIcpZnvrggmS//Gl7f1ikxrRNuUItu4so1cvHFtlmWB9xmE1kr289OYEPkUiwTJhRtLb8e7d9e0j2rBl4b7/nbry114wQy4I26RIJr6A5Tk5YQ3Jhou+s/MpstmyzpkN3tv/tAO2DNwfNFtk3d/UfWt5QdhqCUkW8C6hwZMxgDwRUCK3WFPC/fzfkC0Nl2XravH16e7InbgVgm3iwT6sS1CWPLc2IkczKqaVDq4Xb2zSZderCJCtK3cKd3n6yHOnEcqNbdJhXx3rPtUx171NiMgPnWEiFdzrLzhbcv0bxXZr5bdXk2AgwA4CKpwH2slzmah9xLDlhkuzxeEWny3wMSEzfMIVzrlqmYgQgSZbXrgeW6bZr4sWn20joS1iDzj3+Upia8edeQImW064HtseU9gvegBsE6YJ2FBm8HW3CA1JtqwjLhLuBQXXY0uX3sA9ALYJKwfs+eY+BEgMZijCwcwF12P7Amw6ekXfFp9t/CJWx/tOXr8iEVxDYJCcE+7tFy/aA5c9gHYbz7YVTsGUKm8qN2L14P3HPYfLFoTrsWW663XZg2+3U4ztgDfFBcMWAWFcLrge2wUbslnN44QlZ94VW+w6fKsy+uZ8tgsGDx9cjy1ksn11bLnTh7Bs+fzhLNwVW6BHOXoNbMc5sQU9zMlwb//nFl302KJuWWG56/bA1p5nublgLXcP5JVIhLtiy84UVmVfE9vt2i1Cl730A5rPFmy44nIuHthYtlIn/WzBZwtb7yVbfH/Heq6nXKF989mCp3kOni0xv828dgi0eGFsSbFw12xR5zWyJdZlvGtek1rz4lp8OqJsSXFwN2wht+LBs8X3E2ze/NoOtVdDyrr8dFcn30N0chIBN2ALeJgPni2+F2vwZmyax7JFXrak/v3Z86dAP3sRcEO27GtKdsKW3VfNkS22f8t9bpgwMvIUsK4iugWMLbo/Ot4NW9zUJpQtHnfgXDzoVEwnWe2riD4XZ4v6d/n5kuKEDxdsODFHtviFbL57mxLOGp4SK7aQ5YZgi9o/cWu5MLa4I0Njxpgc2RIdO99gRp474SnhsoX9TCRbhB4x474wtnjYhK1yjmzLuD+Br8MlHag8JTy2IFyarUv3aZOGURRbfYm5Xdh5Z45skYJfiefeKqTZjqeIH60E4L5n2Lpfvn+68qZwovYYW9iTqrA5WPNkiz8hSWYGpkAqtgBciK33/c7p2aenU56fTi+8SwPS4OfJdopfisOhUKFyBfBUZxNlZ+BewGxFCu8SIEdXnmxJ02Niw7XmVB4AnvoEDgYa7o/dsyUW7EB982RLHHdI9o2b9Gl1nvq0745guLtnS7wvR1HY7alc2RJp92MOQPlfZg7q8FQIO01Owt0529GAODgD9IG5siWN4Gqs77HFHmnnqRG+P0vA3TXbcpXo0TSgsrmyJU8wxJ4vm2oMWj7vI+4tx+EKY2uawIbpyCQzy0BdQs5siZHThRtlubNMg0XLx5aINmJwhbHtNpShMy3r4fRVb3WX1FMH+r7zZUsdvVEMBwxAVObrjlkZpGZ7Svv213DFsVXdRqKpg/nEcbrd7oMzGxhMf6ZBwYCc2Y6G5KOiDkyarlWZBEmY1DE+1nJVdQEZmD0f6DNX8fRaLxC8vHy26opIr7GpB3hOMWe29EF0t+mWJjU9yNqmT7tDDUuIlyE3BRVs3MAV5lUE8pjQUlQQTd5s0QM9a1Vso1F1H6gHZzIfaBoGU6la6XOqMFGFNdy3gtttnCLCLLmzRUsg69rqebKpp0lRM+QCcme4dDjMh7tHtkbEAab82eql+JR24eXG6XNYeWKy24n12Cay1aLeYJo/W9SqcsHVMuReW2kBuUJOmvtqt4YTxUUAW9QaJMNd5wTJwhYw1Hk+0P2wVWLO5otgi8pDMEcbJnt9cDITWws6FFHfB1t3jhmz3SeELRpNoHVXqOCWMrFFl4CHVBjbh8i8nYqhxuVFEsQWoakSTVc1HjLlFg71dYe+pHJ32TBUesGg2GpjMI4/FVYOU/8pMNtAf6V7B6qpaMAKpmQbmhMuEF22oVL8OPuGboHvjEd6rTural7OQ1+G1lBmZmIouzyoBgJO3I2wj7WU75e1ajPNwOe0XjZ3bUj8sStK+Ptc4cuNnmm4Itl6svTWdGx6bwUwzXFF52JhYUr/cYL0mjNf/cG9TJdade6M6T2NzL9Pdwui2RZRll5uTWu1aaWl8/2xeXXa240v6ZdU56a+C1/SLyq36Yr3Jf2y8hKKivUl/crqPN+t3r8rbM37S8tanJ79fLm53/d9vF7lOgeRkpKSkpKSkpKSkpKSkpKSkpKSkpKSkjp0/R9hjfa3/NDoWAAAAABJRU5ErkJggg==;" vertex="1" parent="1">
          <mxGeometry x="65.17" y="30" width="119.66" height="50" as="geometry" />
        </mxCell>
      </root>
    </mxGraphModel>
  </diagram>
</mxfile>
